# xmcd CD database file
#
# Track frame offsets:
#	150
#	18616
#	35598
#	55721
#	79012
#	93790
#	122550
#	146354
#	171636
#	187383
#
# Disc length: 2852 seconds
#
# Revision: 0
# Processed by: cddbd v1.4PL0 Copyright (c) Steve Scherf et al.
# Submitted via: CDex 1.50
#
DISCID=860b220a
DTITLE=Pablo Porcelli - Sin Rodeo
DYEAR=2002
DGENRE=Jazz
TTITLE0=Sin Rodeo 
TTITLE1=Piriapolis 
TTITLE2=Nostalgias de un destino  
TTITLE3=Secretos 
TTITLE4=Watermelon Man 
TTITLE5=Chakreg 
TTITLE6=Chromazone 
TTITLE7=Maputo 
TTITLE8=Mr Band Mood 
TTITLE9=PeAPe
EXTD=YEAR: 2002
EXTT0=
EXTT1=
EXTT2=
EXTT3=
EXTT4=
EXTT5=
EXTT6=
EXTT7=
EXTT8=
EXTT9=
PLAYORDER=
